<?xml version="1.0" encoding="UTF-8"?>
<svg width="30px" height="14px" viewBox="0 0 30 14" version="1.1" xmlns="http://www.w3.org/2000/svg" xmlns:xlink="http://www.w3.org/1999/xlink">
    <!-- Generator: Sketch 41.2 (35397) - http://www.bohemiancoding.com/sketch -->
    <title>flickr</title>
    <desc>Created with Sketch.</desc>
    <defs></defs>
    <g id="Page-1" stroke="none" stroke-width="1" fill="none" fill-rule="evenodd">
        <g id="Home" transform="translate(-648.000000, -2824.000000)">
            <g id="Footer" transform="translate(0.000000, 2703.000000)">
                <g id="flickr" transform="translate(634.000000, 100.000000)">
                    <g transform="translate(14.000000, 21.000000)">
                        <path d="M7.27706016,0.36 C11.0099931,0.36 14.0365203,3.38652723 14.0365203,7.11946016 C14.0365203,10.8534732 11.0099931,13.8800005 7.27706016,13.8800005 C3.54412723,13.8800005 0.5176,10.8534732 0.5176,7.11946016 C0.5176,3.38652723 3.54412723,0.36 7.27706016,0.36" id="Fill-69" fill="#FFFFFF"></path>
                        <path d="M22.9842,0.861500229 C26.4402,0.861500229 29.2422,3.66350023 29.2422,7.11950023 C29.2422,10.5765002 26.4402,13.3785002 22.9842,13.3785002 C19.5282,13.3785002 16.7262,10.5765002 16.7262,7.11950023 C16.7262,3.66350023 19.5282,0.861500229 22.9842,0.861500229" id="Fill-71" stroke="#FFFFFF"></path>
                    </g>
                </g>
            </g>
        </g>
    </g>
</svg>